<svg xmlns="http://www.w3.org/2000/svg" viewBox="0 0 98 52" fill="none">
    <path fill-rule="evenodd" clip-rule="evenodd" d="M51.1834 13.2962C51.3003 13.9095 51.2207 15.399 51.2207 16.1056C51.2207 17.1556 51.2375 18.0157 51.251 18.7216C50.3475 18.5709 49.4202 18.4911 48.4741 18.4911C47.5222 18.4911 46.5894 18.5717 45.6809 18.7242C45.6745 17.4929 45.6285 13.7692 45.7152 13.2889L51.1834 13.2962ZM52.598 19.0032C53.7564 19.2964 54.8663 19.7109 55.9145 20.2312C55.2351 18.6436 54.8368 16.9273 54.7327 15.0456C54.6306 13.1986 54.6931 13.1952 52.6411 13.2985C52.5346 13.9616 52.5728 16.8969 52.598 19.0032ZM59.3136 22.4711C62.9321 25.544 65.2287 30.1264 65.2287 35.2453C65.2287 44.4988 57.7272 52 48.4741 52C39.2212 52 31.72 44.4988 31.72 35.2453C31.72 30.2079 33.9436 25.6897 37.4627 22.6186C41.8111 16.6555 39.3265 14.2032 41.1111 12.2672C41.6675 11.6634 41.9479 11.7633 42.3804 11.4662L54.5159 11.5041L55.8171 12.3186C56.9842 13.4611 56.3109 15.0983 56.918 17.4847C57.2358 18.734 57.5493 19.4683 58.1028 20.5344C58.4731 21.2479 58.8813 21.8722 59.3136 22.4711ZM40.9878 20.2541C42.0337 19.7308 43.1416 19.3127 44.2981 19.0159C44.2993 18.7773 44.2996 18.5396 44.2975 18.3032C44.2845 16.7915 44.4159 14.7199 44.2712 13.2859C42.3357 13.3266 42.2684 12.9857 42.1685 14.9692C42.0586 17.152 41.6158 18.8343 40.9878 20.2541ZM47.0122 37.776H45.9974C45.8939 37.776 45.8088 37.8604 45.8088 37.9647C45.8088 38.0684 45.8933 38.1532 45.9974 38.1532H47.0122V39.4703H45.9974C45.8939 39.4703 45.8085 39.5548 45.8085 39.6591C45.8085 39.7628 45.8933 39.8479 45.9974 39.8479H47.0122V40.2603H49.5408C49.8319 40.2603 50.0776 40.1835 50.2708 40.0451C50.4614 39.9087 50.6103 39.7288 50.7008 39.5097L50.7247 39.4518L50.725 39.4509L50.7261 39.4482L50.7268 39.4465L50.727 39.4458L50.7281 39.4431C50.7503 39.3903 50.7831 39.3515 50.8317 39.3448H50.9144H50.9182L50.922 39.3446L50.9258 39.3444L50.9296 39.3441L50.9334 39.3437L50.937 39.343H50.9372L50.9408 39.3425V39.3423L50.9444 39.3417L50.948 39.341H50.9482L50.9515 39.3401H50.9517L50.9587 39.3381L50.9622 39.337L50.9656 39.3356L50.9689 39.3343H50.9691L50.9723 39.333H50.9725L50.9756 39.3316H50.9758L50.979 39.33L50.9854 39.3268L50.9886 39.3249L50.9917 39.3231L50.9946 39.3212H50.9949L50.9977 39.3191L51.0007 39.3171H51.0009L51.0065 39.3129L51.0093 39.3107V39.3104L51.0121 39.3082L51.0147 39.3059V39.3057L51.0174 39.3035V39.3033L51.0223 39.2983H51.0225L51.0248 39.2956H51.025L51.0272 39.293L51.0294 39.2904H51.0297L51.0319 39.2876V39.2874L51.0362 39.2818V39.2816L51.0382 39.2789V39.2787L51.0401 39.2758V39.2756L51.0422 39.2729V39.2726L51.044 39.2697V39.2695L51.0457 39.2667V39.2665L51.0491 39.2602V39.2599L51.0507 39.2568V39.2566L51.052 39.2534V39.2532L51.0533 39.2501V39.2499L51.0547 39.2468V39.2465L51.0561 39.2434V39.2432L51.0572 39.2398V39.2396L51.0591 39.2326V39.2324L51.0601 39.2291V39.2288L51.0608 39.2255V39.2253L51.0621 39.2181V39.2179L51.0627 39.2146V39.2143L51.0632 39.2107V39.2105L51.0634 39.207V39.2068L51.0636 39.2032V39.203L51.0638 39.1994V39.1992V39.1956V39.1954V38.989H55.3316C55.2831 39.5113 55.1777 40.0081 55.0132 40.479C54.7865 41.1277 54.4472 41.6945 54.003 42.187C53.5591 42.6796 53.0092 43.065 52.3481 43.3433C51.6915 43.6196 50.9273 43.7651 50.0557 43.7651H42.0719V32.9417H45.8085V33.5502H46.2876V33.5495C46.2924 33.4533 46.3695 33.3767 46.4658 33.3713H49.0334C49.3217 33.3713 49.5618 33.2984 49.7515 33.1687C49.9462 33.0355 50.0905 32.8649 50.1857 32.6575C50.2804 32.4516 50.3296 32.2269 50.3278 31.9961C50.326 31.7611 50.2737 31.5419 50.1775 31.3347C50.0796 31.1247 49.9348 30.9558 49.7393 30.8237C49.5459 30.6932 49.3004 30.6211 49.0089 30.6211H46.4658C46.3695 30.6158 46.2924 30.5391 46.2876 30.4428V30.4418H45.8085V31.0505H42.0719V26.7261H49.35C50.0923 26.7261 50.7835 26.8619 51.4233 27.1277C52.0606 27.3927 52.6233 27.7661 53.1066 28.2395C53.5922 28.7149 53.9711 29.2664 54.2425 29.8987C54.5139 30.5313 54.6542 31.2172 54.6565 31.9597C54.6576 32.3037 54.6015 32.6625 54.4943 33.0266C54.3869 33.3923 54.23 33.7368 54.0314 34.0649C53.8328 34.3936 53.5936 34.6739 53.3177 34.9051C54.0113 35.2659 54.5231 35.7449 54.8595 36.3451C55.1957 36.9452 55.3626 37.6233 55.3624 38.3858C55.3624 38.4689 55.3592 38.5524 55.3557 38.6346H51.0638V38.4282V38.428V38.4245V38.4242L51.0636 38.4206V38.4204L51.0634 38.4168V38.4166L51.0632 38.413V38.4128L51.0627 38.4092V38.409L51.0621 38.4056V38.4055L51.0608 38.3983V38.3981L51.0601 38.3947V38.3945L51.0591 38.3911V38.3909L51.0572 38.384V38.3838L51.0561 38.3804V38.3802L51.0547 38.3771V38.3769L51.0533 38.3737V38.3735L51.052 38.3704V38.3702L51.0507 38.367V38.3668L51.0491 38.3636V38.3634L51.0457 38.3572V38.3569L51.044 38.3541V38.3539L51.0422 38.3509V38.3507L51.0401 38.3481V38.3478L51.0382 38.3449V38.3447L51.0362 38.342V38.3418L51.0319 38.3362V38.336L51.0297 38.3333H51.0294L51.0272 38.3306L51.025 38.3279H51.0248L51.0225 38.3252H51.0223L51.0174 38.3203V38.3201L51.0147 38.3179V38.3177L51.0121 38.3154L51.0093 38.3132V38.313L51.0065 38.3107L51.0009 38.3065H51.0007L50.9977 38.3045L50.9949 38.3025H50.9946L50.9917 38.3005L50.9886 38.2987L50.9854 38.2969L50.979 38.2936L50.9758 38.292H50.9756L50.9725 38.2906H50.9723L50.9691 38.2893H50.9689L50.9656 38.288L50.9622 38.2866L50.9587 38.2854L50.9517 38.2835H50.9515L50.9482 38.2826H50.948L50.9444 38.2819L50.9408 38.2812V38.281L50.9372 38.2806H50.937L50.9334 38.2798L50.9296 38.2794L50.9258 38.2792L50.922 38.279L50.9182 38.2788H50.9144H50.8317C50.7837 38.2721 50.7467 38.2395 50.7243 38.1887C50.7142 38.1638 50.7037 38.1385 50.6928 38.1142C50.5936 37.8944 50.4445 37.7165 50.2464 37.5783C50.0519 37.4419 49.8075 37.3635 49.5162 37.3635H47.0122V37.776ZM45.8085 32.6426V31.3496H42.0719V32.6426H45.8085Z" fill="#FFC53D"/>
    <path d="M97.7253 32.5574H95.2585V39.3268H94.1209V32.5574H91.6768V31.5549H97.7253V32.5574ZM3.87471 35.2719V35.317C4.43778 35.3694 4.83763 35.5666 5.0742 35.9082C5.31077 36.2499 5.42899 36.7437 5.42899 37.3895C5.42899 38.1704 5.24321 38.7035 4.87151 38.9889C4.49969 39.2741 3.85215 39.4169 2.92857 39.4169C1.65952 39.4169 0.68335 39.3869 0 39.3268V31.5549C0.608265 31.4949 1.47174 31.4649 2.59062 31.4649C3.56678 31.4649 4.24448 31.6057 4.6237 31.8872C5.00285 32.1688 5.19242 32.7038 5.19242 33.4923C5.19242 34.0555 5.08731 34.4816 4.87704 34.7707C4.66683 35.0598 4.33268 35.2268 3.87471 35.2719ZM1.10377 38.4482L2.75962 38.4594C3.35278 38.4594 3.75636 38.375 3.97036 38.206C4.1843 38.037 4.2914 37.7011 4.2914 37.1979C4.2914 36.6349 4.17691 36.2518 3.94787 36.0491C3.71882 35.8463 3.30019 35.7412 2.692 35.7337H1.10377V38.4482ZM1.10377 34.8664H2.68068C3.22138 34.8664 3.59481 34.782 3.80136 34.6131C4.00791 34.444 4.11128 34.1155 4.11128 33.6273C4.11128 33.1469 3.99852 32.8258 3.77334 32.6645C3.54808 32.5029 3.13498 32.4223 2.53437 32.4223H1.10377V34.8664ZM12.4118 38.3919L12.4569 39.2593C11.7735 39.3192 10.6622 39.3493 9.12298 39.3493C8.64218 39.3493 8.2631 39.2236 7.98526 38.9719C7.70742 38.7203 7.56857 38.3806 7.56857 37.9527V32.929C7.56857 32.5011 7.70742 32.1614 7.98526 31.9097C8.2631 31.6581 8.64218 31.5324 9.12298 31.5324C10.6622 31.5324 11.7735 31.5626 12.4569 31.6225L12.4118 32.5011H9.31435C9.08903 32.5011 8.92954 32.5557 8.83562 32.6645C8.74177 32.7733 8.69484 32.9592 8.69484 33.2219V34.7763H11.9724V35.6887H8.69484V37.6711C8.69484 37.9338 8.74177 38.1197 8.83562 38.2285C8.92954 38.3374 9.08903 38.3919 9.31435 38.3919H12.4118ZM19.5748 38.3356L19.6875 39.1917C19.0642 39.3718 18.2946 39.4619 17.3784 39.4619C16.2445 39.4619 15.4486 39.1616 14.9906 38.561C14.5325 37.9601 14.3036 36.9201 14.3036 35.4409C14.3036 33.9616 14.5325 32.9216 14.9906 32.3208C15.4486 31.7202 16.2445 31.4198 17.3784 31.4198C18.1894 31.4198 18.9066 31.4949 19.5297 31.645L19.4172 32.5123C18.8165 32.4523 18.1368 32.4223 17.3784 32.4223C16.6651 32.4223 16.1715 32.6401 15.8974 33.0755C15.6231 33.5112 15.4863 34.2994 15.4863 35.4409C15.4863 36.5823 15.6231 37.3706 15.8974 37.8062C16.1715 38.2416 16.6651 38.4594 17.3784 38.4594C18.3321 38.4594 19.0642 38.4182 19.5748 38.3356ZM22.7843 34.6298H24.3161C25.2923 34.6298 25.97 34.8063 26.3493 35.1593C26.7285 35.5122 26.918 36.1429 26.918 37.0515C26.918 37.9601 26.7378 38.5816 26.3775 38.9156C26.0169 39.2498 25.39 39.4169 24.4964 39.4169C23.2875 39.4169 22.3487 39.3869 21.6805 39.3268H21.658V31.5549H22.7843V34.6298ZM22.7843 38.4257L24.3161 38.437C24.9095 38.437 25.3018 38.3432 25.4932 38.1554C25.6847 37.9675 25.7804 37.5922 25.7804 37.029C25.7804 36.4734 25.6847 36.0904 25.4932 35.8801C25.3018 35.6699 24.9095 35.5647 24.3161 35.5647H22.7843V38.4257ZM75.6842 38.3356L75.797 39.1917C75.1738 39.3718 74.4041 39.4619 73.4881 39.4619C72.354 39.4619 71.5581 39.1616 71.1001 38.561C70.6421 37.9601 70.4131 36.9201 70.4131 35.4409C70.4131 33.9616 70.6421 32.9216 71.1001 32.3208C71.5581 31.7202 72.354 31.4198 73.4881 31.4198C74.2989 31.4198 75.0161 31.4949 75.6392 31.645L75.5266 32.5123C74.926 32.4523 74.2463 32.4223 73.4881 32.4223C72.7746 32.4223 72.281 32.6401 72.0069 33.0755C71.7328 33.5112 71.5958 34.2994 71.5958 35.4409C71.5958 36.5823 71.7328 37.3706 72.0069 37.8062C72.281 38.2416 72.7746 38.4594 73.4881 38.4594C74.4416 38.4594 75.1738 38.4182 75.6842 38.3356ZM81.6421 35.2719V35.317C82.2053 35.3694 82.605 35.5666 82.8416 35.9082C83.0781 36.2499 83.1965 36.7437 83.1965 37.3895C83.1965 38.1704 83.0106 38.7035 82.6389 38.9889C82.2672 39.2741 81.6196 39.4169 80.6959 39.4169C79.4269 39.4169 78.4508 39.3869 77.7676 39.3268V31.5549C78.3758 31.4949 79.2392 31.4649 80.358 31.4649C81.3342 31.4649 82.0119 31.6057 82.3911 31.8872C82.7704 32.1688 82.9599 32.7038 82.9599 33.4923C82.9599 34.0555 82.8547 34.4816 82.6445 34.7707C82.4344 35.0598 82.1001 35.2268 81.6421 35.2719ZM78.8713 38.4482L80.527 38.4594C81.1201 38.4594 81.5238 38.375 81.7379 38.206C81.9519 38.037 82.0588 37.7011 82.0588 37.1979C82.0588 36.6349 81.9443 36.2518 81.7154 36.0491C81.4864 35.8463 81.0676 35.7412 80.4594 35.7337H78.8713V38.4482ZM78.8713 34.8664H80.4481C80.9888 34.8664 81.3624 34.782 81.5689 34.6131C81.7753 34.444 81.8787 34.1155 81.8787 33.6273C81.8787 33.1469 81.7659 32.8258 81.5408 32.6645C81.3154 32.5029 80.9025 32.4223 80.3017 32.4223H78.8713V34.8664ZM90.1794 38.3919L90.2243 39.2593C89.5409 39.3192 88.4296 39.3493 86.8904 39.3493C86.4097 39.3493 86.0305 39.2236 85.7527 38.9719C85.4748 38.7203 85.336 38.3806 85.336 37.9527V32.929C85.336 32.5011 85.4748 32.1614 85.7527 31.9097C86.0305 31.6581 86.4097 31.5324 86.8904 31.5324C88.4296 31.5324 89.5409 31.5626 90.2243 31.6225L90.1794 32.5011H87.0818C86.8565 32.5011 86.697 32.5557 86.6031 32.6645C86.5093 32.7733 86.4623 32.9592 86.4623 33.2219V34.7763H89.74V35.6887H86.4623V37.6711C86.4623 37.9338 86.5093 38.1197 86.6031 38.2285C86.697 38.3374 86.8565 38.3919 87.0818 38.3919H90.1794Z" fill="#2B3034"/>
    <path fill-rule="evenodd" clip-rule="evenodd" d="M44.7236 2.18722C44.2779 2.18676 43.9003 2.18076 43.6029 2.38838C42.8088 2.94279 43.1221 4.38957 44.3988 4.3897L51.4145 4.38977C52.4489 4.38991 53.8288 4.61682 53.8635 3.31123C53.8751 2.87536 53.7984 2.71787 53.5285 2.48989C53.0547 2.0895 52.3931 2.2046 51.5869 2.15966C51.4944 1.94519 51.5048 1.88622 51.4552 1.6603C51.3591 1.22224 51.12 0.822987 50.7995 0.548475C50.2347 0.0649516 49.8949 0.00331176 48.9459 0.00144796C47.3832 -0.00241277 45.9085 -0.0964682 45.5188 2.16992L44.7236 2.18722Z" fill="#FFC53D"/>
    <path fill-rule="evenodd" clip-rule="evenodd" d="M41.8356 9.09153C41.3957 10.848 43.557 10.4827 44.3338 10.4831C47.3849 10.4843 51.1849 10.5528 54.1468 10.4866C55.5264 10.4558 55.804 8.95587 54.5985 8.37922C54.1849 8.18132 53.3396 8.28304 52.7786 8.28304C51.785 8.28304 42.8555 8.1939 42.5332 8.33775C42.2921 8.44552 42.6939 8.25255 42.456 8.38149L42.2465 8.5003C42.0262 8.64335 41.9162 8.76949 41.8356 9.09153Z" fill="#FFC53D"/>
    <path fill-rule="evenodd" clip-rule="evenodd" d="M41.8315 6.03854C41.7833 6.18205 41.7076 6.07967 41.7375 6.42002C41.7556 6.62677 41.942 6.98155 42.0719 7.13345C42.0922 7.15735 42.2857 7.32323 42.3086 7.33388C42.6761 7.50468 50.9659 7.40943 51.9988 7.40943C52.4328 7.40943 54.5147 7.49556 54.8185 7.29174C54.9228 7.22185 55.1933 6.93376 55.2638 6.77301C55.3801 6.50835 55.3451 6.07115 55.2304 5.85914C54.9427 5.32703 54.3696 5.29029 53.8179 5.29315L43.0989 5.29348C42.6917 5.29215 42.5523 5.27191 42.2545 5.44598C41.9233 5.63948 41.9487 5.68907 41.8315 6.03854Z" fill="#FFC53D"/>
</svg>